<?xml version="1.0" encoding="utf-8" ?>
<svg xmlns="http://www.w3.org/2000/svg" xmlns:xlink="http://www.w3.org/1999/xlink" width="1024" height="2048">
	<path fill="#FEFEFE" d="M0 0L1024 0L1024 2046.25C1022.96 2046.85 1021.98 2047.36 1020.8 2047.62C1011.74 2049.66 967.073 2048.01 954.147 2048.01L767.612 2048.02L14.1208 2047.99C9.76244 2047.99 3.75313 2048.75 0 2046.25L0 0Z"/>
	<path fill="#1391D7" d="M356.779 432.628C356.241 464.97 376.794 495.629 398.523 518.109C408.828 528.771 420.568 537.511 432.879 545.703C431.23 547.959 431.109 548.404 428.484 549.217C422.269 548.353 417.407 545.209 412.422 541.619C383.105 520.509 354.655 483.148 348.819 446.82C350.423 441.244 353.12 437.068 356.779 432.628Z"/>
	<path fill="#1391D7" d="M768.238 315.924C772.205 310.087 777.611 300.098 783.492 296.366C790.95 302.469 798.415 308.334 806.949 312.881C809.419 314.37 811.994 315.779 814.286 317.533C810.071 327.047 805.393 336.038 800.375 345.137C794.796 342.146 789.213 338.668 784.121 334.909C778.181 330.526 769.385 323.506 768.238 315.924Z"/>
	<path fill="#F2B494" d="M802.171 208.145C803.681 207.826 807.144 207.356 808.291 206.491C815.187 201.292 838.759 145.835 849.968 140.881L851.268 141.494C854.123 149.95 838.335 186.348 833.927 195.609C837.769 197.267 845.709 201.971 847.132 205.838C848.085 208.429 847.208 210.72 849.213 212.79L850.238 212.994C853.358 214.895 855.148 216.403 856.088 220.109C857.9 227.246 855.498 237.307 851.998 243.62C851.882 243.828 851.745 244.022 851.619 244.224C846.556 257.9 834.438 271.082 821.877 278.433C816.496 289.593 810.812 301.099 806.949 312.881C798.415 308.334 790.95 302.469 783.492 296.366C807.494 281.613 782.386 231.595 802.171 208.145Z"/>
	<path fill="#DE8164" d="M814.361 228.623C821.648 220.33 821.401 205.273 828.592 197.535L829.851 199.011C827.445 205.877 818.288 225.256 821.17 231.43C823.567 232.841 825.871 233.984 828.737 233.066C831.509 232.178 833.322 229.171 834.414 226.649C837.06 220.534 837.252 206.615 841.228 202.328L843.015 203.019C845.66 211.867 832.792 227.093 837.611 235.295C840.039 235.802 842.012 234.896 844.029 233.612C846.283 232.177 848.445 228.257 849.069 225.635C850.055 221.489 847.803 216.904 850.238 212.994C853.358 214.895 855.148 216.403 856.088 220.109C857.9 227.246 855.498 237.307 851.998 243.62C851.882 243.828 851.745 244.022 851.619 244.224C849.686 246.156 849.147 248.644 846.222 249.521C837.85 252.033 828.193 250.386 820.805 245.867C816.988 243.532 812.851 239.462 811.905 234.924C811.38 232.405 812.97 230.529 814.361 228.623Z"/>
	<path fill="#165690" d="M395.596 128.714C397.369 125.782 399.464 123.178 401.766 120.642C411.705 109.689 426.826 103.211 441.493 102.579C452.366 102.11 466.287 104.579 474.553 112.17C474.585 112.355 474.613 112.541 474.648 112.726C475.448 116.972 477.634 120.734 478.627 124.964C481.66 137.882 478.439 152.376 471.052 163.302C459.651 180.164 439.897 188.971 420.452 192.562C412.885 193.959 405.223 194.859 397.576 195.682C386.733 197.048 375.574 197.893 368.426 207.381C362.97 214.623 362.595 224.369 363.993 232.987C364.895 238.544 367.021 243.678 368.883 248.957Q354.864 250.503 340.791 251.435C327.589 265.071 311.462 287.327 292.159 290.929C290.891 283.655 290.837 276.68 290.909 269.327C282.884 264.369 276.607 258.185 273.65 249.012C270.331 238.713 272.147 227.374 277.147 217.936C284.177 204.667 296.887 195.329 311.054 190.998C310.915 184.062 310.904 177.386 312.536 170.59C316.218 155.252 325.353 142.356 338.938 134.166C357.013 123.267 375.747 123.788 395.596 128.714Z"/>
	<path fill="#042359" d="M460.447 132.693C461.065 133.731 461.391 134.792 461.66 135.959C463.612 144.392 461.243 153.295 456.64 160.425C446.09 176.768 427.131 183.684 408.953 187.46L408.447 186.665C411.598 184.59 415.23 183.442 418.565 181.692C439.595 170.659 453.423 155.447 460.447 132.693Z"/>
	<path fill="#59BAE7" d="M768.238 315.924C769.385 323.506 778.181 330.526 784.121 334.909C789.213 338.668 794.796 342.146 800.375 345.137C768.623 423.427 717.621 489.179 655.409 545.712C638.986 560.635 620.599 577.084 601.642 588.589C596.891 553.095 578.757 518.945 558.794 489.74C553.211 481.573 545.743 467.448 535.689 465.553Q542.914 464.904 550.083 463.792C640.449 450.027 715.437 387.649 768.238 315.924Z"/>
	<path fill="#F2B494" d="M474.553 112.17C482.902 118.799 488.042 128.157 489.296 138.751C490.897 152.273 486.035 166.848 477.57 177.437C475.841 179.6 473.874 181.571 471.892 183.501C489.328 199.294 489.301 217.952 497.025 238.686C498.393 242.358 499.739 246.744 501.915 249.992C508.214 259.395 525.096 262.323 529.172 268.312C529.181 273.019 527.767 275.78 524.449 279.12C520.773 282.82 516.373 285.216 511.645 287.297C515.471 304.845 522.046 344.896 512.255 359.89C501.042 377.061 474.038 373.807 468.926 378.868C468.408 379.38 467.844 381.037 467.487 381.752L466.922 380.098C464.415 378.128 454.909 378.712 451.205 378.396C420.15 375.747 406.944 365.053 387.636 342.076L378.906 357.814C376.713 361.937 374.548 366.023 372.718 370.325C339.203 349.583 308.077 328.457 292.159 290.929C311.462 287.327 327.589 265.071 340.791 251.435Q354.864 250.503 368.883 248.957C367.021 243.678 364.895 238.544 363.993 232.987C362.595 224.369 362.97 214.623 368.426 207.381C375.574 197.893 386.733 197.048 397.576 195.682C405.223 194.859 412.885 193.959 420.452 192.562C439.897 188.971 459.651 180.164 471.052 163.302C478.439 152.376 481.66 137.882 478.627 124.964C477.634 120.734 475.448 116.972 474.648 112.726C474.613 112.541 474.585 112.355 474.553 112.17Z"/>
	<path fill="#DE8164" d="M366.191 289.593Q366.804 289.638 367.411 289.728Q368.019 289.818 368.619 289.952Q369.218 290.087 369.806 290.265Q370.394 290.442 370.968 290.663Q371.541 290.883 372.097 291.145Q372.653 291.407 373.188 291.709Q373.723 292.011 374.234 292.352Q374.746 292.692 375.231 293.069C378.649 295.74 381.855 300.438 382.193 304.878C382.38 307.338 381.976 307.823 380.463 309.544L378.396 307.77C372.828 301.789 361.864 298.735 359.515 295.077C360.605 292.2 363.652 290.997 366.191 289.593Z"/>
	<path fill="#042359" d="M456.022 218.248C456.489 218.387 456.671 218.424 457.158 218.667C459.421 219.796 459.818 220.209 460.58 222.481C458.485 228.164 441.993 234.926 436.497 238.028L433.931 238.66L433.148 237.611C433.671 232.497 437.163 227.13 439.945 222.912C445.216 221.155 450.675 219.772 456.022 218.248Z"/>
	<path fill="#042359" d="M447.212 263.203C446.058 260.778 446.691 258.228 447.607 255.818C448.751 252.811 452.031 249.552 455.103 248.435C458.068 247.358 460.926 247.544 463.746 248.87C467.468 250.621 470.494 254.202 471.877 258.05C472.891 260.87 473.151 264.127 471.692 266.851C470.385 269.293 468.065 270.423 465.457 271.005C465.106 271.084 464.75 271.143 464.395 271.202C461.806 272.257 457.548 272.39 454.896 271.461C450.697 269.991 448.976 267.039 447.212 263.203Z"/>
	<path fill="#FEFEFE" d="M447.212 263.203C448.682 257.637 450.686 253.195 456.122 250.415C456.876 250.029 457.412 249.984 458.242 249.894C460.364 251.958 460.597 254.12 460.628 257.089C460.692 263.111 461.097 266.138 464.395 271.202C461.806 272.257 457.548 272.39 454.896 271.461C450.697 269.991 448.976 267.039 447.212 263.203Z"/>
	<path fill="#FEFEFE" d="M508.058 302.973L510.286 303.686C510.507 304.138 510.727 304.592 510.917 305.058C512.389 308.675 511.835 312.847 510.331 316.373C508.51 320.643 505.14 324.455 500.699 326.054C495.179 328.04 490.266 326.216 485.27 323.75C480.521 320.643 477.607 316.465 474.62 311.782C486.629 310.244 496.772 307.349 508.058 302.973Z"/>
	<path fill="#042359" d="M474.553 112.17C482.902 118.799 488.042 128.157 489.296 138.751C490.897 152.273 486.035 166.848 477.57 177.437C475.841 179.6 473.874 181.571 471.892 183.501C456.044 196.242 439.538 203.535 418.637 201.44Q417.458 201.321 416.287 201.133C405.245 200.804 388.249 197.535 379.457 205.658C374.635 210.113 373.078 216.864 372.991 223.208C372.745 241.191 392.192 280.956 399.712 299.445C389.442 292.159 377.354 276.408 363.477 278.492C359.701 279.059 356.619 281.083 354.449 284.207C351.079 289.059 349.957 295.675 351.039 301.429C352.706 310.286 359.372 318.898 366.748 323.847C371.334 326.924 376.396 328.963 382.017 328.343C383.761 332.944 385.35 337.714 387.636 342.076L378.906 357.814C376.713 361.937 374.548 366.023 372.718 370.325C339.203 349.583 308.077 328.457 292.159 290.929C311.462 287.327 327.589 265.071 340.791 251.435Q354.864 250.503 368.883 248.957C367.021 243.678 364.895 238.544 363.993 232.987C362.595 224.369 362.97 214.623 368.426 207.381C375.574 197.893 386.733 197.048 397.576 195.682C405.223 194.859 412.885 193.959 420.452 192.562C439.897 188.971 459.651 180.164 471.052 163.302C478.439 152.376 481.66 137.882 478.627 124.964C477.634 120.734 475.448 116.972 474.648 112.726C474.613 112.541 474.585 112.355 474.553 112.17Z"/>
	<path fill="#9CD1F2" d="M494.039 1774.53C498.388 1776.82 504.113 1777.26 508.959 1777.73C517.603 1778.57 532.955 1778.55 539.923 1772.82C538.592 1778.15 537.57 1794.26 540.175 1799.11C540.342 1799.42 540.702 1799.78 540.92 1800.02L542.946 1799.54C551.559 1803.8 558.934 1810.38 566.765 1815.9C583.915 1827.98 604.936 1839.66 625.243 1845.2C628.127 1845.99 633.353 1847.95 636.131 1847.02C636.444 1846.91 636.746 1846.78 637.054 1846.65L637.783 1846.85C650.089 1850.06 664.277 1850.5 676.96 1852.22C702.23 1855.63 780.538 1866.19 793.958 1888.15C795.161 1890.12 795.656 1892.16 794.953 1894.4C792.9 1900.96 779.844 1907.32 773.798 1910.02C744.708 1922.99 708.933 1926.6 677.506 1930.46C550.463 1946.09 398.299 1946.23 271.477 1928.15C242.358 1924 210.836 1919.31 183.29 1908.67C176.654 1906.1 166.241 1901.85 163.322 1894.92Q163.158 1894.54 163.033 1894.14Q162.908 1893.75 162.824 1893.34Q162.739 1892.93 162.696 1892.52Q162.652 1892.1 162.65 1891.69Q162.648 1891.27 162.688 1890.86Q162.728 1890.44 162.808 1890.04Q162.889 1889.63 163.01 1889.23Q163.132 1888.83 163.292 1888.45C166.581 1880.56 181.666 1875.98 189.118 1873.39C196.172 1870.93 238.641 1860.65 240.808 1859.3L241.86 1855.84C243.217 1846.59 243.939 1836.97 246.125 1827.9C247.46 1822.35 248.129 1819.68 253.056 1816.65C253.114 1816.53 253.175 1816.4 253.23 1816.28C255.92 1809.99 257.48 1791.93 254.991 1785.49L257.022 1785.36C265.24 1790.04 296.235 1793.92 305.544 1791.27C305.738 1791.21 305.926 1791.14 306.117 1791.07C304.805 1798.93 302.104 1808.3 302.113 1816.15C306.419 1818.1 310.766 1819.45 314.774 1822.03C321.232 1826.2 342.06 1844.94 346.992 1846C348.033 1846.43 349.154 1846.71 350.261 1846.91C357.831 1848.23 380.081 1844.96 388.993 1844.42Q422.74 1842.48 456.535 1841.74C463.804 1841.57 482.65 1843.22 487.99 1839.2C489.252 1831.76 487.706 1823.77 489.235 1816.34C490.329 1811.03 492.419 1808.5 496.849 1805.5C496.6 1795.17 493.974 1784.98 494.039 1774.53Z"/>
	<path fill="#011046" d="M241.129 1873.46C248.268 1878.78 263.212 1880.85 272.199 1882.77C312.926 1891.49 358.145 1900.2 399.801 1894.04C407.065 1892.97 418.913 1891.28 423.97 1885.65C425.036 1888.59 426.939 1892.36 426.313 1895.47C423.695 1898 421.015 1899.22 417.529 1900.2C373.795 1912.51 316.067 1902.99 272.092 1893.83C262.49 1891.82 249.354 1890.31 240.801 1885.55C240.69 1881.54 240.992 1877.47 241.129 1873.46Z"/>
	<path fill="#165690" d="M257.022 1785.36C265.24 1790.04 296.235 1793.92 305.544 1791.27C305.738 1791.21 305.926 1791.14 306.117 1791.07C304.805 1798.93 302.104 1808.3 302.113 1816.15C306.419 1818.1 310.766 1819.45 314.774 1822.03C321.232 1826.2 342.06 1844.94 346.992 1846C359.68 1868.47 407.503 1868.04 423.97 1885.65C418.913 1891.28 407.065 1892.97 399.801 1894.04C358.145 1900.2 312.926 1891.49 272.199 1882.77C263.212 1880.85 248.268 1878.78 241.129 1873.46C240.865 1867.73 241.591 1861.59 241.86 1855.84C243.217 1846.59 243.939 1836.97 246.125 1827.9C247.46 1822.35 248.129 1819.68 253.056 1816.65C253.114 1816.53 253.175 1816.4 253.23 1816.28C255.92 1809.99 257.48 1791.93 254.991 1785.49L257.022 1785.36Z"/>
	<path fill="#F2B494" d="M257.022 1785.36C265.24 1790.04 296.235 1793.92 305.544 1791.27C305.738 1791.21 305.926 1791.14 306.117 1791.07C304.805 1798.93 302.104 1808.3 302.113 1816.15C298.173 1819.67 292.22 1820.05 288.401 1823.82C286.524 1825.67 285.813 1828.32 284.086 1830.24C283.609 1830.78 282.931 1831.63 282.183 1831.66C275.717 1831.95 258.221 1821.03 253.056 1816.65C253.114 1816.53 253.175 1816.4 253.23 1816.28C255.92 1809.99 257.48 1791.93 254.991 1785.49L257.022 1785.36Z"/>
	<path fill="#042359" d="M494.039 1774.53C498.388 1776.82 504.113 1777.26 508.959 1777.73C517.603 1778.57 532.955 1778.55 539.923 1772.82C538.592 1778.15 537.57 1794.26 540.175 1799.11C540.342 1799.42 540.702 1799.78 540.92 1800.02L542.946 1799.54C551.559 1803.8 558.934 1810.38 566.765 1815.9C583.915 1827.98 604.936 1839.66 625.243 1845.2C628.127 1845.99 633.353 1847.95 636.131 1847.02C636.444 1846.91 636.746 1846.78 637.054 1846.65C645.66 1856.3 670.185 1851.68 678.056 1866.72C678.797 1870.09 679.741 1872.13 678.612 1875.43C660.952 1889.5 602.701 1885.38 579.763 1882.78C563.372 1880.92 547.185 1877.67 530.824 1875.72C518.616 1874.27 504.781 1874.37 492.904 1871.52C490.847 1871.03 490.262 1870.23 488.864 1868.74C486.566 1863.59 488.241 1846.09 487.99 1839.2C489.252 1831.76 487.706 1823.77 489.235 1816.34C490.329 1811.03 492.419 1808.5 496.849 1805.5C496.6 1795.17 493.974 1784.98 494.039 1774.53Z"/>
	<path fill="#DE8164" d="M494.039 1774.53C498.388 1776.82 504.113 1777.26 508.959 1777.73C517.603 1778.57 532.955 1778.55 539.923 1772.82C538.592 1778.15 537.57 1794.26 540.175 1799.11C540.342 1799.42 540.702 1799.78 540.92 1800.02L542.946 1799.54L542.054 1800.03C533.15 1804.97 530.384 1819.56 518.547 1816.11C514.269 1814.86 500.063 1808.15 496.849 1805.5C496.6 1795.17 493.974 1784.98 494.039 1774.53Z"/>
	<path fill="#011046" d="M488.864 1868.74C489.963 1864.96 489.36 1859.59 489.404 1855.6C499.062 1859.55 515.767 1857.64 526.607 1859.53C538.223 1861.56 549.695 1866.58 561.242 1869.36C589.348 1876.13 622.331 1879.51 650.93 1874.06C660.201 1872.29 668.959 1869.13 678.056 1866.72C678.797 1870.09 679.741 1872.13 678.612 1875.43C660.952 1889.5 602.701 1885.38 579.763 1882.78C563.372 1880.92 547.185 1877.67 530.824 1875.72C518.616 1874.27 504.781 1874.37 492.904 1871.52C490.847 1871.03 490.262 1870.23 488.864 1868.74Z"/>
	<path fill="#59BAE7" d="M286.423 513.935C295.561 513.484 301.214 515.393 308.113 521.616C330.151 541.498 337.882 578.182 339.014 606.442Q339.037 607.024 339.053 607.606Q352.547 684.894 363.989 762.512C366.822 780.859 368.74 799.484 371.93 817.752C372.401 820.45 372.718 822.893 374.424 825.118C366.717 843.762 359.022 862.473 350.517 880.769C358.302 884.334 366.069 887.908 374.003 891.131C371.069 896.049 368.688 947.298 369.382 955.212C363.113 953.577 356.612 952.448 350.272 951.087C345.206 943.454 339.425 936.328 334.447 928.61C326.766 934.34 303.331 950.259 299.279 956.972C287.571 943.277 271.12 932.351 258.205 919.533C233.945 895.451 163.093 817.364 163.341 783.263C163.756 726.224 246.359 554.071 286.423 513.935Z"/>
	<path fill="#FEFEFE" d="M296.447 726.889C299.667 733.389 311.897 882.311 310.005 887.825C309.795 888.434 309.785 888.428 309.548 888.94C288.989 853.942 267.981 819.846 253.111 781.915C267.742 763.647 282.867 746 296.447 726.889Z"/>
	<path fill="#9CD1F2" d="M339.053 607.606Q352.547 684.894 363.989 762.512C366.822 780.859 368.74 799.484 371.93 817.752C372.401 820.45 372.718 822.893 374.424 825.118C366.717 843.762 359.022 862.473 350.517 880.769C358.302 884.334 366.069 887.908 374.003 891.131C371.069 896.049 368.688 947.298 369.382 955.212C363.113 953.577 356.612 952.448 350.272 951.087C345.206 943.454 339.425 936.328 334.447 928.61C328.054 921.359 314.268 897.901 309.548 888.94C309.785 888.428 309.795 888.434 310.005 887.825C311.897 882.311 299.667 733.389 296.447 726.889C300.28 722.714 303.558 716.192 306.505 711.243C324.619 680.828 338.932 643.397 339.053 607.606Z"/>
	<path fill="#B8E2F6" d="M387.636 342.076C406.944 365.053 420.15 375.747 451.205 378.396C454.909 378.712 464.415 378.128 466.922 380.098L467.487 381.752C466.455 392.339 466.123 403.632 464.298 414.058C463.986 418.783 462.556 424.835 465.792 428.613C474.532 434.097 482.575 446.68 485.868 456.491C489.473 457.816 489.363 456.374 492.428 456.378C493.891 456.38 505.347 464.163 509.072 465.22C513.253 466.406 518.129 466.003 522.432 465.972C526.871 465.998 531.272 466.077 535.689 465.553C545.743 467.448 553.211 481.573 558.794 489.74C578.757 518.945 596.891 553.095 601.642 588.589C587.18 599.097 572.526 608.86 557.109 617.914C559.608 648.657 562.963 679.286 564.866 710.085Q567.681 757.12 567.889 804.238Q568.096 851.357 565.696 898.415C564.917 912.431 564.571 941 562.077 953.124C562.053 948.269 561.953 943.401 562.153 938.55C497.913 970.746 437.935 967.804 369.382 955.212C368.688 947.298 371.069 896.049 374.003 891.131C366.069 887.908 358.302 884.334 350.517 880.769C359.022 862.473 366.717 843.762 374.424 825.118C372.718 822.893 372.401 820.45 371.93 817.752C368.74 799.484 366.822 780.859 363.989 762.512Q352.547 684.894 339.053 607.606Q339.037 607.024 339.014 606.442C337.882 578.182 330.151 541.498 308.113 521.616C301.214 515.393 295.561 513.484 286.423 513.935C300.855 491.092 328.549 464.825 348.819 446.82C354.655 483.148 383.105 520.509 412.422 541.619C417.407 545.209 422.269 548.353 428.484 549.217C431.109 548.404 431.23 547.959 432.879 545.703L435.06 541.792Q430.047 538.877 425.262 535.602Q420.476 532.327 415.944 528.71Q411.411 525.093 407.156 521.153Q402.901 517.214 398.946 512.973C381.529 494.132 359.842 465.6 361.104 438.52C361.3 434.313 361.887 428.158 365.307 425.194C365.826 424.743 366.21 424.949 366.863 424.986C369.379 426.402 370.43 428.807 371.747 431.249C374.698 411.528 372.976 390.257 372.718 370.325C374.548 366.023 376.713 361.937 378.906 357.814L387.636 342.076Z"/>
	<path fill="#1391D7" d="M465.792 428.613C474.532 434.097 482.575 446.68 485.868 456.491C489.815 465.495 493.226 474.743 495.511 484.312C497.344 491.985 502.158 520.643 497.799 526.962C496.995 528.127 496.02 527.917 494.702 528.098C489.461 525.137 491.397 519.235 491.692 513.867C493.265 485.269 481.932 451.924 464.943 429.103L465.792 428.613Z"/>
	<path fill="#1391D7" d="M522.432 465.972C526.871 465.998 531.272 466.077 535.689 465.553C545.743 467.448 553.211 481.573 558.794 489.74C578.757 518.945 596.891 553.095 601.642 588.589C587.18 599.097 572.526 608.86 557.109 617.914C554.557 613.336 547.067 562.546 545.021 553.062Q541.753 537.756 537.267 522.761Q532.781 507.766 527.107 493.18C524.314 486.16 518.916 479.351 516.903 472.215C516.243 469.877 516.153 468.935 517.278 466.842L522.432 465.972Z"/>
	<path fill="#1391D7" d="M435.06 541.792Q430.047 538.877 425.262 535.602Q420.476 532.327 415.944 528.71Q411.411 525.093 407.156 521.153Q402.901 517.214 398.946 512.973C381.529 494.132 359.842 465.6 361.104 438.52C361.3 434.313 361.887 428.158 365.307 425.194C365.826 424.743 366.21 424.949 366.863 424.986C369.379 426.402 370.43 428.807 371.747 431.249C380.482 452.197 426.791 477.809 446.303 489.895C454.066 471.908 461.12 452.235 464.385 432.861C483.581 459.971 488.141 493.044 487.646 525.365C476.841 519.985 464.768 514.589 453.229 511.057C447.465 521.051 441.971 532.635 435.06 541.792Z"/>
	<path fill="#F2B494" d="M387.636 342.076C406.944 365.053 420.15 375.747 451.205 378.396C454.909 378.712 464.415 378.128 466.922 380.098L467.487 381.752C466.455 392.339 466.123 403.632 464.298 414.058C463.986 418.783 462.556 424.835 465.792 428.613L464.943 429.103L464.385 432.861C461.12 452.235 454.066 471.908 446.303 489.895C426.791 477.809 380.482 452.197 371.747 431.249C374.698 411.528 372.976 390.257 372.718 370.325C374.548 366.023 376.713 361.937 378.906 357.814L387.636 342.076Z"/>
	<path fill="#DE8164" d="M387.636 342.076C406.944 365.053 420.15 375.747 451.205 378.396C454.909 378.712 464.415 378.128 466.922 380.098L467.487 381.752C466.455 392.339 466.123 403.632 464.298 414.058C457.738 414.537 450.848 415.304 444.287 414.695C413.232 411.813 396.695 379.309 378.906 357.814L387.636 342.076Z"/>
	<path fill="#165690" d="M374.424 825.118C380.394 811.869 407.811 743.702 414.156 737.938C418.16 736.815 421.863 737.521 425.796 738.669C438.206 742.292 450.76 749.04 462.624 754.274L526.834 782.392C510.084 815.354 495.115 849.158 479.712 882.762C473.214 896.938 467.57 912.933 459.548 926.176C430.25 917.041 402.803 901.688 374.003 891.131C366.069 887.908 358.302 884.334 350.517 880.769C359.022 862.473 366.717 843.762 374.424 825.118Z"/>
	<path fill="#FEFEFE" d="M423.862 757.053C426.021 757.431 427.517 758.125 429.395 759.241C430.713 761.295 431.668 762.369 431.285 764.945C430.786 768.3 428.461 770.261 426.036 772.343C423.473 771.614 420.353 770.882 418.831 768.471C417.543 766.43 417.09 764.367 417.991 762.08C419.005 759.51 421.557 758.23 423.862 757.053Z"/>
	<defs>
		<linearGradient id="gradient_0" gradientUnits="userSpaceOnUse" x1="571.89746" y1="1404.0393" x2="291.55576" y2="1383.9259">
			<stop offset="0" stop-color="#062A5E"/>
			<stop offset="1" stop-color="#0865A4"/>
		</linearGradient>
	</defs>
	<path fill="url(#gradient_0)" d="M334.447 928.61C339.425 936.328 345.206 943.454 350.272 951.087C356.612 952.448 363.113 953.577 369.382 955.212C437.935 967.804 497.913 970.746 562.153 938.55C561.953 943.401 562.053 948.269 562.077 953.124L561.875 965.746C560.044 967.247 558.017 969.326 555.85 970.268C556.487 976.039 557.182 981.777 557.269 987.589C563.146 1050.16 565.546 1113.36 567.835 1176.15C569.928 1233.54 572.252 1290.72 570.932 1348.19C570.446 1369.36 567.707 1390.26 566.723 1411.38Q562.088 1522.77 555.814 1634.07L550.76 1724.81C550.322 1734.14 550.772 1760.27 548.618 1767.9C546.317 1770.16 543.994 1772.91 540.491 1772.89C540.3 1772.89 540.112 1772.85 539.923 1772.82C532.955 1778.55 517.603 1778.57 508.959 1777.73C504.113 1777.26 498.388 1776.82 494.039 1774.53C493.974 1784.98 496.6 1795.17 496.849 1805.5C492.419 1808.5 490.329 1811.03 489.235 1816.34C487.706 1823.77 489.252 1831.76 487.99 1839.2C482.65 1843.22 463.804 1841.57 456.535 1841.74Q422.74 1842.48 388.993 1844.42C380.081 1844.96 357.831 1848.23 350.261 1846.91C349.154 1846.71 348.033 1846.43 346.992 1846C342.06 1844.94 321.232 1826.2 314.774 1822.03C310.766 1819.45 306.419 1818.1 302.113 1816.15C302.104 1808.3 304.805 1798.93 306.117 1791.07C305.926 1791.14 305.738 1791.21 305.544 1791.27C296.235 1793.92 265.24 1790.04 257.022 1785.36L254.991 1785.49C252.159 1785.42 248.932 1785.74 246.592 1783.91C243.957 1775.43 246.903 1750.54 247.419 1740.47Q252.823 1638.16 263.615 1536.27C266.814 1507.33 269.492 1478.05 274.807 1449.42C277.195 1436.56 280.938 1423.26 285.386 1410.99C289.489 1399.67 295.928 1388.09 297.045 1376.03C299.107 1353.76 296.991 1326.36 297.081 1303.49Q297.301 1226.51 299.291 1149.56C300.268 1114.26 301.666 1079.17 304.372 1043.96C305.584 1028.18 309.631 1004.01 309.31 989.544C307.627 983.824 310.249 973.385 311.002 967.309C306.794 964.221 303.073 960.543 299.279 956.972C303.331 950.259 326.766 934.34 334.447 928.61Z"/>
	<path fill="#165690" d="M386.711 998.984C391.853 1000.49 397.701 1001.67 402.346 1004.37C397.509 1004.57 393.231 1003.1 388.982 1000.83C377.123 1020.37 365.27 1035.99 347.785 1050.91C345.11 1051.48 344.853 1051.57 342.38 1050.46C341.86 1048.55 341.882 1047.13 342.059 1045.17L341.675 1044.45C337.673 1053.18 340.577 1090.24 335.921 1094.24C332.222 1080.71 340.027 1051.23 338.195 1035.5C339.944 1025.21 340.743 1013.57 340.393 1003.14C343.051 1004.9 345.774 1005.92 348.753 1007L344.541 1047.65C345.172 1047.62 345.068 1047.65 345.81 1047.47C359.261 1044.26 379.739 1010.7 386.711 998.984Z"/>
	<path fill="#F2B494" d="M325.334 977.312C333.978 970.952 342.674 964.538 350.878 957.616L368.775 985.267C375.357 988.416 383 991.242 390.228 992.341L386.711 998.984C379.739 1010.7 359.261 1044.26 345.81 1047.47C345.068 1047.65 345.172 1047.62 344.541 1047.65L348.753 1007C345.774 1005.92 343.051 1004.9 340.393 1003.14C339.718 1002.69 340.026 1002.83 339.276 1002.58C329.046 999.168 319.096 994.091 309.31 989.544C307.627 983.824 310.249 973.385 311.002 967.309C314.388 970.22 319.317 976.501 323.441 977.648L325.334 977.312Z"/>
	<path fill="#042359" d="M311.002 967.309C314.388 970.22 319.317 976.501 323.441 977.648L325.334 977.312L350.335 993.203L348.753 1007C345.774 1005.92 343.051 1004.9 340.393 1003.14C339.718 1002.69 340.026 1002.83 339.276 1002.58C329.046 999.168 319.096 994.091 309.31 989.544C307.627 983.824 310.249 973.385 311.002 967.309Z"/>
	<path fill="#042359" d="M390.228 992.341C400.468 991.465 417.881 996.045 429.167 996.696C480.486 999.659 510.123 990.606 555.85 970.268C556.487 976.039 557.182 981.777 557.269 987.589C556.911 991.135 557.378 993.28 554.314 995.633C529.921 1014.37 466.612 1016.81 436.316 1011.93C426.587 1010.37 410.824 1004.9 402.346 1004.37C397.701 1001.67 391.853 1000.49 386.711 998.984L390.228 992.341Z"/>
	<path fill="#1391D7" d="M334.447 928.61C339.425 936.328 345.206 943.454 350.272 951.087C356.612 952.448 363.113 953.577 369.382 955.212C437.935 967.804 497.913 970.746 562.153 938.55C561.953 943.401 562.053 948.269 562.077 953.124L561.875 965.746C560.044 967.247 558.017 969.326 555.85 970.268C510.123 990.606 480.486 999.659 429.167 996.696C417.881 996.045 400.468 991.465 390.228 992.341C383 991.242 375.357 988.416 368.775 985.267L350.878 957.616C342.674 964.538 333.978 970.952 325.334 977.312L323.441 977.648C319.317 976.501 314.388 970.22 311.002 967.309C306.794 964.221 303.073 960.543 299.279 956.972C303.331 950.259 326.766 934.34 334.447 928.61Z"/>
	<path fill="#042359" d="M454.348 1112.9C463.523 1110.47 511.666 1062.07 517.49 1052.31Q517.79 1051.81 518.071 1051.29L517.932 1051.75C514.464 1063.14 505.938 1072.35 502.929 1083.79C497.689 1103.71 495.468 1125.15 491.847 1145.46Q478.886 1218.57 465.176 1291.55C460.574 1316.03 457.189 1341.46 450.544 1365.44L449.23 1365.75C445.011 1356.35 444.827 1336.3 443.47 1325.53L433.936 1251.52C439.011 1205.61 451.082 1158.74 454.348 1112.9Z"/>
	<path fill="#165690" d="M309.31 989.544C319.096 994.091 329.046 999.168 339.276 1002.58C340.026 1002.83 339.718 1002.69 340.393 1003.14C340.743 1013.57 339.944 1025.21 338.195 1035.5L336.003 1036.66C331.438 1066.21 331.264 1097.67 329.026 1127.56L314.502 1331.99C313.234 1351.91 313.852 1372.12 312.261 1391.96C311.685 1399.15 308.442 1407.08 306.897 1414.27Q300.861 1442.92 295.658 1471.73Q281.24 1556.41 271.619 1641.77Q266.468 1685.48 262.354 1729.3C261.142 1742.6 260.955 1775.03 257.022 1785.36L254.991 1785.49C252.159 1785.42 248.932 1785.74 246.592 1783.91C243.957 1775.43 246.903 1750.54 247.419 1740.47Q252.823 1638.16 263.615 1536.27C266.814 1507.33 269.492 1478.05 274.807 1449.42C277.195 1436.56 280.938 1423.26 285.386 1410.99C289.489 1399.67 295.928 1388.09 297.045 1376.03C299.107 1353.76 296.991 1326.36 297.081 1303.49Q297.301 1226.51 299.291 1149.56C300.268 1114.26 301.666 1079.17 304.372 1043.96C305.584 1028.18 309.631 1004.01 309.31 989.544Z"/>
	<path fill="#FEFEFE" d="M306.117 1791.07C308.789 1791.74 309.678 1792.17 312.35 1791.2C316.954 1781.87 319.844 1757.22 322.172 1746.11C327.111 1722.55 332.625 1699.06 337.843 1675.56L384.872 1463.5C389.991 1440.6 394.324 1417.47 399.774 1394.66C403.966 1377.11 411.71 1360.52 415.961 1342.85C423.185 1312.83 425.598 1281.23 433.936 1251.52L443.47 1325.53C444.827 1336.3 445.011 1356.35 449.23 1365.75C450.401 1373.39 453.826 1381.34 454.265 1388.87C454.804 1398.13 452.257 1408.25 451.043 1417.45C449.674 1427.83 449.349 1438.63 449.919 1449.07C451.532 1478.63 476.67 1761.36 481.794 1770.55C484.841 1773.1 488.853 1775.13 492.95 1774.73C493.585 1774.66 493.525 1774.66 494.039 1774.53C493.974 1784.98 496.6 1795.17 496.849 1805.5C492.419 1808.5 490.329 1811.03 489.235 1816.34C487.706 1823.77 489.252 1831.76 487.99 1839.2C482.65 1843.22 463.804 1841.57 456.535 1841.74Q422.74 1842.48 388.993 1844.42C380.081 1844.96 357.831 1848.23 350.261 1846.91C349.154 1846.71 348.033 1846.43 346.992 1846C342.06 1844.94 321.232 1826.2 314.774 1822.03C310.766 1819.45 306.419 1818.1 302.113 1816.15C302.104 1808.3 304.805 1798.93 306.117 1791.07Z"/>
</svg>
