<?xml version="1.0" encoding="utf-8" ?>
<svg xmlns="http://www.w3.org/2000/svg" xmlns:xlink="http://www.w3.org/1999/xlink" width="1024" height="2048">
	<path fill="#FFFFFF" d="M0 0L1024 0L1024 2046.25C1022.96 2046.85 1021.98 2047.36 1020.8 2047.62C1011.74 2049.66 967.073 2048.01 954.147 2048.01L767.612 2048.02L14.1208 2047.99C9.76244 2047.99 3.75313 2048.75 0 2046.25L0 0Z"/>
	<path fill="#302E74" d="M724.334 335.591C758.075 349.415 792.621 369.498 807.382 404.483C818.714 431.339 818.164 463.222 807.126 490.065C801.495 503.758 792.171 519.382 779.423 527.589C779.454 526.842 779.541 526.279 779.943 525.632C781.136 523.709 782.42 521.856 783.558 519.896C811.31 472.085 810.164 425.362 774.476 382.149C767.31 373.471 759.651 364.94 750.982 357.726C745.779 353.396 725.642 340.504 724.334 335.591Z"/>
	<path fill="#786AA9" d="M719.628 333.678C721.182 334.222 722.976 334.672 724.334 335.591C725.642 340.504 745.779 353.396 750.982 357.726C759.651 364.94 767.31 373.471 774.476 382.149C810.164 425.362 811.31 472.085 783.558 519.896C782.42 521.856 781.136 523.709 779.943 525.632C779.541 526.279 779.454 526.842 779.423 527.589L776.765 530.233C771.195 522.495 765.887 515.819 758.206 510.083C766.496 501.134 773.824 492.449 778.873 481.24C798.648 437.335 778.811 389.448 745.798 357.985C740.266 352.713 721.994 339.894 719.628 333.678Z"/>
	<path fill="#F6BF9D" d="M88.381 252.225C86.0359 250.414 84.809 249.244 83.6421 246.437L84.1118 245.05C96.9389 244.06 161.885 287.86 173.808 298.026C177.646 301.299 180.219 304.272 182.498 308.776C182.633 324.38 182.149 339.976 182.234 355.571C177.238 350.941 169.937 347.786 163.741 345.103Q163.307 342.9 162.761 340.722C158.86 325.17 139.526 301.206 125.77 293.009C128.93 293.637 130.816 293.973 133.902 292.733C117.939 280.402 102.797 266.33 88.381 252.225Z"/>
	<path fill="#ED9979" d="M88.381 252.225L89.6569 250.676L140.271 290.075C147.734 295.989 156.517 301.843 162.828 308.909C164.702 311.006 165.546 313.902 166.445 316.522L166.229 318.018C161.266 317.396 153.627 307.517 149.846 304.079C145.884 300.477 138.25 298.412 135.119 294.579C134.644 293.997 134.256 293.392 133.902 292.733C117.939 280.402 102.797 266.33 88.381 252.225Z"/>
	<path fill="#302E74" d="M718.911 333.409L719.628 333.678C721.994 339.894 740.266 352.713 745.798 357.985C778.811 389.448 798.648 437.335 778.873 481.24C773.824 492.449 766.496 501.134 758.206 510.083C752.311 506.196 746.186 503.488 739.7 500.741C741.764 490.933 746.688 481.57 748.881 471.688C755.223 443.107 741.618 413.718 728.502 389.16C724.309 381.308 714.991 370.853 712.439 363.275C711.368 360.095 717.348 347.035 718.177 343.016C718.829 339.851 718.911 336.63 718.911 333.409Z"/>
	<path fill="#ED9979" d="M120.619 346.999C116.341 342.727 112.81 338.293 110.81 332.508C108.468 325.733 107.608 314.305 111.863 308.046C113.06 306.286 115.673 305.215 116.67 303.676C117.962 301.681 118.341 297.161 119.547 294.628C122.108 292.901 122.805 292.981 125.77 293.009C139.526 301.206 158.86 325.17 162.761 340.722Q163.307 342.9 163.741 345.103C169.937 347.786 177.238 350.941 182.234 355.571C190.912 362.979 257.906 415.064 263.054 416.066C250.269 431.679 237.527 447.077 225.172 463.05C201.8 433.89 181.369 401.983 157.367 373.446C150.006 364.695 141.43 356.669 133.391 348.532L120.619 346.999Z"/>
	<path fill="#4B538F" d="M660.727 1038.71C664.446 1036.95 668.222 1033.79 671.625 1031.43C688.962 1019.44 704.414 1003.57 722.233 992.709C757.24 1069.27 750.507 1227.77 746.16 1313.85C744.824 1340.3 744.626 1368.25 740.762 1394.42C737.666 1397.39 727.935 1402.09 723.554 1401.95C723.373 1401.94 723.195 1401.9 723.015 1401.87C719.149 1405.12 707.367 1408.35 702.32 1407.73C701.307 1407.6 700.361 1407.23 699.454 1406.78C702.509 1398.9 703.666 1388.18 704.724 1379.76C714.386 1302.86 696.362 1192.49 680.064 1116.43C674.474 1090.34 665.596 1064.88 660.727 1038.71Z"/>
	<path fill="#B13946" d="M263.054 416.066L265.192 415.735C288.666 434.133 332.918 474.317 357.693 485.734C383.686 497.711 470.364 490.198 500.764 486.504C516.123 484.637 531.862 483.199 547.07 480.406C547.364 483.378 546.581 483.666 544.688 485.967C543.175 487.806 541.491 489.47 539.793 491.137C518.052 507.49 480.363 555.874 464.341 579.731C458.934 587.781 454.654 596.227 449.664 604.471C411.051 596.987 345.729 580.56 313.441 559.133C281.997 538.266 246.894 493.865 225.172 463.05C237.527 447.077 250.269 431.679 263.054 416.066Z"/>
	<path fill="#F6BF9D" d="M496.957 1402.51C508.175 1409.34 577.04 1420.45 590.479 1417.45C591.403 1417.24 592.093 1416.89 592.916 1416.44L592.928 1417.34C593.279 1433.06 598.35 1449.48 600.159 1465.29C603.848 1497.53 603.442 1579.1 594.769 1608.45C590.902 1652.09 578.848 1696.35 568.346 1738.82C564.265 1755.32 553.983 1785.4 554.386 1800.98C554.895 1801.26 555.466 1801.7 556.044 1801.79C539.996 1820.4 510.012 1858.28 492.654 1871.96C487.592 1875.95 481.036 1879.9 474.457 1880.41C471.017 1880.67 465.962 1880.56 463.261 1878.19C463.129 1878.07 463.01 1877.94 462.884 1877.82C466.485 1877.71 468.215 1875.92 470.729 1873.38C485.347 1858.64 514.01 1814.11 518.777 1793.55C522.83 1776.08 519.397 1743.67 518.79 1724.68Q515.397 1622.77 507.246 1521.13Q504.824 1489.54 502.056 1457.98C500.859 1444.63 499.035 1431.1 498.859 1417.71C496.831 1413.77 497.126 1406.97 496.957 1402.51Z"/>
	<path fill="#ED9979" d="M496.957 1402.51C508.175 1409.34 577.04 1420.45 590.479 1417.45C591.403 1417.24 592.093 1416.89 592.916 1416.44L592.928 1417.34C593.279 1433.06 598.35 1449.48 600.159 1465.29C603.848 1497.53 603.442 1579.1 594.769 1608.45C594.291 1610.14 593.384 1611.77 592.632 1613.36L592.445 1613.42L589.939 1610.78L592.428 1610.31Q593.03 1605.38 593.501 1600.43C598.963 1542.02 585.65 1474.65 534.833 1439.1C527.022 1433.64 503.816 1424.08 499.2 1418.18C499.08 1418.03 498.972 1417.87 498.859 1417.71C496.831 1413.77 497.126 1406.97 496.957 1402.51Z"/>
	<path fill="#B5C4EC" d="M556.044 1801.79C564.873 1822.55 563.325 1844.49 561.463 1866.38C560.969 1872.19 559.847 1878.44 560.031 1884.23C561.277 1885.19 562.479 1885.89 564.063 1886.1C579.184 1888.06 595.724 1886.77 611.053 1886.87C623.423 1886.95 636.719 1888.1 648.998 1887.05C650.226 1886.94 651.328 1886.46 652.431 1885.94C652.593 1885.86 652.757 1885.79 652.92 1885.72C653.379 1885.81 654.076 1885.99 654.582 1885.97C659.601 1885.8 671.609 1878.43 675.076 1874.81C675.944 1876.36 676.892 1877.62 678.039 1878.97C682.865 1880.92 687.186 1882.17 692.378 1880.82C698.685 1879.18 704.803 1875.14 709.63 1870.85C721.4 1860.4 730.133 1846.69 740.538 1834.93C749.744 1824.53 762.891 1814.36 770.037 1802.6C781.784 1831.54 770.341 1859.48 773.086 1889.21C781.961 1895.75 919.4 1893.74 935.666 1908.36C937.635 1910.13 937.667 1910.88 937.77 1913.34C932.374 1919.92 905.342 1922.56 896.094 1923.77C841.405 1930.93 784.774 1932.95 729.649 1934.53Q623.651 1936.98 517.629 1936.08C473.864 1935.6 238.853 1930.35 219.175 1913.55C217.607 1912.21 217.726 1911.83 217.574 1909.9C227.446 1895.9 365.155 1891.13 388.646 1890.14C399.893 1889.67 423.56 1891.58 433.366 1887.16C433.591 1887.06 433.812 1886.95 434.035 1886.85C439.332 1888.82 457.326 1880.28 462.884 1877.82C463.01 1877.94 463.129 1878.07 463.261 1878.19C465.962 1880.56 471.017 1880.67 474.457 1880.41C481.036 1879.9 487.592 1875.95 492.654 1871.96C510.012 1858.28 539.996 1820.4 556.044 1801.79Z"/>
	<path fill="#1C2567" d="M675.076 1874.81C675.944 1876.36 676.892 1877.62 678.039 1878.97C682.865 1880.92 687.186 1882.17 692.378 1880.82C698.685 1879.18 704.803 1875.14 709.63 1870.85C721.4 1860.4 730.133 1846.69 740.538 1834.93C749.744 1824.53 762.891 1814.36 770.037 1802.6C781.784 1831.54 770.341 1859.48 773.086 1889.21C772.712 1895.7 772.895 1902.3 772.851 1908.81C772.534 1909 772.08 1909.3 771.705 1909.42C769.102 1910.25 764.891 1909.47 762.528 1908.21C760.597 1901.04 760.401 1893.11 759.136 1885.74L758.415 1889.47C753.003 1892.16 746.429 1890.67 740.779 1889.58C740.056 1888.69 739.48 1887.98 738.98 1886.93C735.955 1894.3 729.025 1900.19 721.95 1903.49C716.563 1906 710.778 1907.3 704.895 1907.93C691.779 1909.34 624.049 1910.25 615.261 1907.09C615.584 1902.9 647.927 1892.35 652.584 1886.2C652.703 1886.05 652.808 1885.88 652.92 1885.72C653.379 1885.81 654.076 1885.99 654.582 1885.97C659.601 1885.8 671.609 1878.43 675.076 1874.81Z"/>
	<path fill="#FDFDFE" d="M755.43 1859.54C756.04 1868.23 757.856 1877.1 759.136 1885.74L758.415 1889.47C753.003 1892.16 746.429 1890.67 740.779 1889.58C740.056 1888.69 739.48 1887.98 738.98 1886.93C744.343 1881.82 751.941 1866.61 755.43 1859.54Z"/>
	<path fill="#1C2567" d="M556.044 1801.79C564.873 1822.55 563.325 1844.49 561.463 1866.38C560.969 1872.19 559.847 1878.44 560.031 1884.23Q559.46 1894.76 558.752 1905.29C554.909 1907.1 551.019 1907.73 546.954 1906.04C546.302 1905.77 546.3 1905.75 545.796 1905.42C545.509 1898.69 545.421 1891.88 544.883 1885.17C541.456 1887.42 535.841 1887.62 531.905 1886.79C529.333 1886.24 529.257 1885.94 527.85 1883.73C523.792 1889.22 514.602 1903.41 509.249 1906.53C504.522 1908.53 416.794 1909 412.191 1907.13C411.855 1907 411.472 1906.72 411.186 1906.53C411.37 1903.35 412.474 1901.54 414.785 1899.48C419.95 1894.88 430.372 1891.71 434.035 1886.85C439.332 1888.82 457.326 1880.28 462.884 1877.82C463.01 1877.94 463.129 1878.07 463.261 1878.19C465.962 1880.56 471.017 1880.67 474.457 1880.41C481.036 1879.9 487.592 1875.95 492.654 1871.96C510.012 1858.28 539.996 1820.4 556.044 1801.79Z"/>
	<path fill="#FDFDFE" d="M543.828 1864.32C544.327 1871.06 545.349 1878.43 544.883 1885.17C541.456 1887.42 535.841 1887.62 531.905 1886.79C529.333 1886.24 529.257 1885.94 527.85 1883.73C533.186 1879.55 541.202 1870.56 543.828 1864.32Z"/>
	<path fill="#4B538F" d="M489.603 250.504C486.921 244.568 484.779 238.441 483.65 232.018C480.294 212.92 483.626 191.485 494.925 175.445C502.965 164.032 514.596 155.428 528.577 153.118C543.586 150.638 556.49 155.086 568.533 163.742C572.029 162.414 575.559 161.052 579.15 160.004C609.683 151.098 648.897 155.065 676.651 170.652C704.774 186.446 715.608 213.579 723.819 243.199C726.294 259.584 726.761 274.945 725.224 291.464C724.004 299.249 715.817 327.26 716.852 331.855L718.911 333.409C718.911 336.63 718.829 339.851 718.177 343.016C717.348 347.035 711.368 360.095 712.439 363.275C714.991 370.853 724.309 381.308 728.502 389.16C741.618 413.718 755.223 443.107 748.881 471.688C746.688 481.57 741.764 490.933 739.7 500.741C722.206 492.462 699.96 488.393 681.248 483.595Q681.258 480.308 681.072 477.026C680.487 467.598 678.483 459.226 671.135 452.793L669.635 452.129C666.331 443.747 666.131 420.527 665.034 410.114Q662.629 409.712 660.236 409.241C645.765 406.376 632.282 400.676 623.812 388.004C615.087 398.274 594.678 414.682 581.231 415.955C579.676 416.102 579.362 415.964 578.002 415.131L577.511 411.064L579.461 398.873C575.881 397.748 569.382 400.202 565.577 400.882C551.146 403.459 529.824 404.563 517.374 395.61C505.512 387.081 504.638 371.001 502.488 357.76L500.313 350.757C498.582 342.409 498.214 333.642 497.474 325.149C490.334 323.117 485.842 319.834 481.255 314.04L480.518 312.598C482.165 310.309 485.728 309.865 488.244 308.777C494.892 305.901 504.41 299.706 506.916 292.586C507.817 290.025 508.067 287.309 506.872 284.817C501.565 274.714 496.042 264.684 491.8 254.074L489.603 250.504Z"/>
	<path fill="#B595B1" d="M684.443 291.301C646.038 278.384 619.814 255.332 594.696 224.015Q597.901 226.854 601.266 229.501Q604.631 232.148 608.145 234.595Q611.658 237.042 615.308 239.28Q618.957 241.518 622.731 243.54Q626.505 245.562 630.39 247.362Q634.275 249.161 638.259 250.731Q642.242 252.301 646.31 253.636Q650.377 254.971 654.516 256.068C673.901 261.382 695.248 263.381 713.348 252.928C717.208 250.698 722.609 247.793 723.819 243.199C726.294 259.584 726.761 274.945 725.224 291.464C710.868 294.728 698.908 293.668 684.443 291.301Z"/>
	<path fill="#302E74" d="M489.603 250.504C490.392 244.844 489.315 238.252 489.094 232.54C488.547 218.443 492.921 203.468 501.807 192.38C510.33 181.744 523.491 175.621 536.9 174.21C542.923 173.576 555.275 171.23 559.987 175.069C560.636 178.747 558.706 181.895 556.763 185.052C536.158 202.907 519.162 227.175 513.679 254.358C511.148 263.904 510.869 276.001 506.872 284.817C501.565 274.714 496.042 264.684 491.8 254.074L489.603 250.504Z"/>
	<path fill="#1C2567" d="M538.896 189.702C525.957 204.493 510.299 227.187 511.684 247.926C511.841 250.277 512.658 252.266 513.679 254.358C511.148 263.904 510.869 276.001 506.872 284.817C501.565 274.714 496.042 264.684 491.8 254.074C490.729 237.867 498.222 222.103 508.734 210.06C517.202 200.357 527.195 194.692 538.896 189.702Z"/>
	<path fill="#1C2567" d="M620.528 261.969C619.55 260.54 618.667 259.268 617.297 258.183C616.186 257.304 615.429 256.431 614.601 255.289L614.805 254.336C616.538 253.13 616.739 253.172 618.869 253.24C619.966 254.792 621.197 256.167 622.527 257.521C636.633 271.876 663.898 291.087 684.443 291.301C698.908 293.668 710.868 294.728 725.224 291.464C724.004 299.249 715.817 327.26 716.852 331.855L718.911 333.409C718.911 336.63 718.829 339.851 718.177 343.016C717.348 347.035 711.368 360.095 712.439 363.275C714.991 370.853 724.309 381.308 728.502 389.16C741.618 413.718 755.223 443.107 748.881 471.688C746.688 481.57 741.764 490.933 739.7 500.741C722.206 492.462 699.96 488.393 681.248 483.595Q681.258 480.308 681.072 477.026C680.487 467.598 678.483 459.226 671.135 452.793L669.635 452.129C666.331 443.747 666.131 420.527 665.034 410.114Q662.629 409.712 660.236 409.241C645.765 406.376 632.282 400.676 623.812 388.004C623.951 385.533 623.597 382.515 624.959 380.448C627.594 381.508 630.41 382.777 633.23 383.214C636.672 383.747 639.916 382.234 642.595 380.172C646.716 377 648.71 372.005 649.38 366.977C650.769 356.547 647.667 348.428 641.371 340.345C643.145 339.495 644.93 338.608 646.593 337.554C652.409 333.87 657.696 328.677 659.011 321.68C660.477 313.876 657.139 308.31 652.917 302.159L652.681 299.491C651.029 297.686 649.236 295.302 647.111 294.073C646.956 293.983 646.793 293.906 646.641 293.812C646.11 293.486 646.171 293.448 645.596 293.155C639.408 290.005 628.941 294.073 622.858 296.28C615.492 290.495 608.64 279.45 602.997 271.909L613.521 279.052C615.642 277.676 618.167 276.735 620.47 275.688L620.528 261.969Z"/>
	<path fill="#F6BF9D" d="M556.763 185.052C556.822 185.246 556.884 185.439 556.94 185.634C559.772 195.483 560.271 205.7 563.853 215.616C576.172 249.719 603.761 272.019 622.319 301.784C627.342 297.976 631.958 294.234 638.658 295.06C643.901 295.707 648.722 299.165 652.917 302.159C657.139 308.31 660.477 313.876 659.011 321.68C657.696 328.677 652.409 333.87 646.593 337.554C644.93 338.608 643.145 339.495 641.371 340.345C647.667 348.428 650.769 356.547 649.38 366.977C648.71 372.005 646.716 377 642.595 380.172C639.916 382.234 636.672 383.747 633.23 383.214C630.41 382.777 627.594 381.508 624.959 380.448C623.597 382.515 623.951 385.533 623.812 388.004C615.087 398.274 594.678 414.682 581.231 415.955C579.676 416.102 579.362 415.964 578.002 415.131L577.511 411.064L579.461 398.873C575.881 397.748 569.382 400.202 565.577 400.882C551.146 403.459 529.824 404.563 517.374 395.61C505.512 387.081 504.638 371.001 502.488 357.76L500.313 350.757C498.582 342.409 498.214 333.642 497.474 325.149C490.334 323.117 485.842 319.834 481.255 314.04L480.518 312.598C482.165 310.309 485.728 309.865 488.244 308.777C494.892 305.901 504.41 299.706 506.916 292.586C507.817 290.025 508.067 287.309 506.872 284.817C510.869 276.001 511.148 263.904 513.679 254.358C519.162 227.175 536.158 202.907 556.763 185.052Z"/>
	<path fill="#B13946" d="M500.313 350.757C503.369 348.535 513.421 349.257 517.765 348.437C524.566 347.152 530.417 345.013 536.595 341.977C529.887 350.052 522.767 358.548 511.563 359.651C508.328 359.97 505.468 358.886 502.488 357.76L500.313 350.757Z"/>
	<path fill="#1C2567" d="M542.311 303.7C541.113 303.508 539.886 303.058 538.82 302.48C536.826 301.4 535.559 299.385 534.919 297.256C533.864 293.745 534.001 288.406 535.926 285.192C536.982 283.429 538.709 282.049 540.728 281.591C545.17 280.584 550.149 282.521 553.714 285.095C556.388 287.026 558.064 289.125 558.551 292.356L557.019 294.254C552.356 299.3 549.466 302.746 542.311 303.7Z"/>
	<path fill="#FDFDFE" d="M542.311 303.7C547.855 297.473 544.888 292.598 548.058 286.201L549.817 286.213C552.77 288.549 554.806 291.229 557.019 294.254C552.356 299.3 549.466 302.746 542.311 303.7Z"/>
	<path fill="#302E74" d="M540.201 249.972C542.592 249.701 544.943 249.593 547.346 249.799C555.785 250.521 566.924 255.629 572.329 262.291C574.703 265.218 576.869 269.257 576.477 273.003C569.207 269.759 543.84 262.733 540.038 257.426C538.887 254.674 539.514 252.718 540.201 249.972Z"/>
	<path fill="#ED9979" d="M519.989 292.36C520.12 302.377 520.708 312.106 521.72 322.069C513.453 324.74 506.118 325.341 497.474 325.149C490.334 323.117 485.842 319.834 481.255 314.04L482.649 312.561C493.687 312.906 500.31 314.121 508.869 305.977C513.002 302.045 516.647 296.984 519.989 292.36Z"/>
	<path fill="#ED9979" d="M554.677 316.654C559.694 316.171 565.452 315.42 570.125 317.731C573.542 319.421 577.036 322.395 578.129 326.176C578.832 328.605 578.501 331.374 577.194 333.542C573.993 338.848 567.659 340.729 562.003 342.047C557.073 341.507 551.915 341.839 547.361 339.595C544.077 337.977 540.272 334.917 539.186 331.267C538.475 328.876 538.656 326.42 540.014 324.28C542.953 319.651 549.604 317.575 554.677 316.654Z"/>
	<path fill="#ED9979" d="M619.801 373.851C618.7 371.455 617.507 368.962 616.712 366.442C614.51 359.457 615.029 349.733 618.605 343.254C620.353 340.087 622.991 337.579 626.542 336.632C632.234 335.114 636.511 337.642 641.371 340.345C647.667 348.428 650.769 356.547 649.38 366.977C648.71 372.005 646.716 377 642.595 380.172C639.916 382.234 636.672 383.747 633.23 383.214C630.41 382.777 627.594 381.508 624.959 380.448C623.597 382.515 623.951 385.533 623.812 388.004C615.087 398.274 594.678 414.682 581.231 415.955C579.676 416.102 579.362 415.964 578.002 415.131L577.511 411.064L579.461 398.873C581.09 396.099 591.22 393.271 594.517 391.554C603.904 386.665 611.817 380.763 619.801 373.851Z"/>
	<path fill="#F6BF9D" d="M626.654 338.205C628.607 339.099 630.942 339.602 631.937 341.534C628.79 350.529 625.925 359.407 623.627 368.67C621.311 367.732 620.702 367.255 619.747 364.843C617.573 359.354 618.758 349.967 621.297 344.778C622.592 342.13 624.529 340.199 626.654 338.205Z"/>
	<path fill="#1C2567" d="M623.627 368.67L624.187 367.994C628.983 362.102 631.986 346.618 638.431 344.023C641.768 345.523 642.953 348.558 644.179 351.78Q644.825 353.492 645.421 355.223C646.083 362.214 646.104 368.27 641.355 373.868C639.06 376.574 636.148 379.117 632.397 379.199C630.292 379.244 628.569 378.396 627.187 376.833C625.289 374.687 623.778 371.534 623.627 368.67Z"/>
	<path fill="#FDFDFE" d="M623.812 388.004C632.282 400.676 645.765 406.376 660.236 409.241Q662.629 409.712 665.034 410.114C666.131 420.527 666.331 443.747 669.635 452.129L671.135 452.793C678.483 459.226 680.487 467.598 681.072 477.026Q681.258 480.308 681.248 483.595C675.574 512.156 659.541 533.325 635.424 549.383C628.96 553.688 622.199 557.346 615.209 560.714C612.443 566.683 608.926 572.283 605.574 577.936C591.648 603.83 576.889 629.255 562.731 655.019L571.331 768.142C572.867 788.43 573.433 814.969 577.362 834.499C573.582 836.842 564.647 841.025 563.351 845.307C571 865.159 576.912 885.648 583.432 905.889C587.162 917.468 592.032 929.21 594.746 941.049C591.832 942.721 588.328 944.323 585.737 946.426C547.426 947.3 505.549 940.665 469.113 929.039L468.495 940.258Q467.919 953.49 468.067 966.733C462.417 962.416 456.517 957.091 450.104 954.039L448.025 951.923C442.389 936.849 467.825 719.044 472.292 690.005C467.66 684.364 463.828 678.385 460.274 672.013C452.722 658.477 443.363 639.312 444.941 623.353C445.56 617.09 447.947 610.522 449.664 604.471C454.654 596.227 458.934 587.781 464.341 579.731C480.363 555.874 518.052 507.49 539.793 491.137C541.491 489.47 543.175 487.806 544.688 485.967C546.581 483.666 547.364 483.378 547.07 480.406C547.271 480.331 547.476 480.263 547.674 480.18C547.988 480.048 548.295 479.899 548.606 479.76C556.621 476.198 562.241 464.687 572.407 459.941C574.691 443.743 575.513 427.308 577.511 411.064L578.002 415.131C579.362 415.964 579.676 416.102 581.231 415.955C594.678 414.682 615.087 398.274 623.812 388.004Z"/>
	<path fill="#B5C4EC" d="M541.987 513.574C542.384 521.243 542.98 528.599 544.479 536.138C543.469 537.262 542.488 538.761 540.956 539.112C534.994 543.476 526.331 551.602 519.068 552.869C518.139 553.031 517.844 552.492 517.117 551.968C517.102 543.656 535.725 520.058 541.987 513.574Z"/>
	<path fill="#B5C4EC" d="M560.355 571.277C567.031 564.585 587.649 542.825 589.573 534.836C589.629 534.606 589.678 534.374 589.731 534.142C595.788 542.135 593.847 555.428 601.499 563.215C605.729 564.856 611.29 562.385 615.209 560.714C612.443 566.683 608.926 572.283 605.574 577.936L600.933 578.893C595.469 576.161 593.221 564.131 590.8 558.295C577.609 566.838 566.798 579.045 555.052 589.379C551.289 581.22 543.852 541.611 540.956 539.112C542.488 538.761 543.469 537.262 544.479 536.138C545.835 542.773 546.947 549.514 548.506 556.099C550.62 564.937 553.579 574.032 554.837 583.015C556.552 579.143 558.085 574.846 560.355 571.277Z"/>
	<path fill="#DF6755" d="M449.664 604.471C454.654 596.227 458.934 587.781 464.341 579.731C480.363 555.874 518.052 507.49 539.793 491.137C518.734 521.528 492.788 576.969 485.166 612.418C479.673 637.966 484.58 662.75 483.095 688.307C478.434 768.533 472.103 848.72 469.113 929.039L468.495 940.258Q467.919 953.49 468.067 966.733C462.417 962.416 456.517 957.091 450.104 954.039L448.025 951.923C442.389 936.849 467.825 719.044 472.292 690.005C467.66 684.364 463.828 678.385 460.274 672.013C452.722 658.477 443.363 639.312 444.941 623.353C445.56 617.09 447.947 610.522 449.664 604.471Z"/>
	<path fill="#F6BF9D" d="M623.812 388.004C632.282 400.676 645.765 406.376 660.236 409.241Q662.629 409.712 665.034 410.114C666.131 420.527 666.331 443.747 669.635 452.129L671.135 452.793C678.483 459.226 680.487 467.598 681.072 477.026Q681.258 480.308 681.248 483.595C675.574 512.156 659.541 533.325 635.424 549.383C628.96 553.688 622.199 557.346 615.209 560.714C611.29 562.385 605.729 564.856 601.499 563.215C593.847 555.428 595.788 542.135 589.731 534.142C589.678 534.374 589.629 534.606 589.573 534.836C587.649 542.825 567.031 564.585 560.355 571.277C558.085 574.846 556.552 579.143 554.837 583.015C553.579 574.032 550.62 564.937 548.506 556.099C550.568 543.169 552.804 530.202 556.178 517.541C561.332 498.208 567.922 479.495 572.407 459.941C574.691 443.743 575.513 427.308 577.511 411.064L578.002 415.131C579.362 415.964 579.676 416.102 581.231 415.955C594.678 414.682 615.087 398.274 623.812 388.004Z"/>
	<path fill="#FDFDFE" d="M560.355 571.277C564.82 559.492 578.946 533.679 588.547 525.904C593.139 522.185 599.405 519.958 604.51 516.942C628.586 502.72 663.911 481.183 671.135 452.793C678.483 459.226 680.487 467.598 681.072 477.026Q681.258 480.308 681.248 483.595C675.574 512.156 659.541 533.325 635.424 549.383C628.96 553.688 622.199 557.346 615.209 560.714C611.29 562.385 605.729 564.856 601.499 563.215C593.847 555.428 595.788 542.135 589.731 534.142C589.678 534.374 589.629 534.606 589.573 534.836C587.649 542.825 567.031 564.585 560.355 571.277Z"/>
	<path fill="#FDFDFE" d="M699.454 1406.78C700.361 1407.23 701.307 1407.6 702.32 1407.73C707.367 1408.35 719.149 1405.12 723.015 1401.87L723.25 1402.65C725.38 1409.49 728.88 1416 731.668 1422.62Q738.312 1438.56 743.56 1455.01C760.503 1509.34 767.09 1575.16 768.122 1631.89C770.128 1646.81 768.914 1662.93 768.769 1678.02L767.713 1761.84C767.581 1773.42 766.311 1786.44 767.825 1797.89C768.079 1799.82 768.565 1801.29 770.037 1802.6C762.891 1814.36 749.744 1824.53 740.538 1834.93C730.133 1846.69 721.4 1860.4 709.63 1870.85C704.803 1875.14 698.685 1879.18 692.378 1880.82C687.186 1882.17 682.865 1880.92 678.039 1878.97C676.892 1877.62 675.944 1876.36 675.076 1874.81C671.609 1878.43 659.601 1885.8 654.582 1885.97C654.076 1885.99 653.379 1885.81 652.92 1885.72C652.757 1885.79 652.593 1885.86 652.431 1885.94C651.328 1886.46 650.226 1886.94 648.998 1887.05C636.719 1888.1 623.423 1886.95 611.053 1886.87C595.724 1886.77 579.184 1888.06 564.063 1886.1C562.479 1885.89 561.277 1885.19 560.031 1884.23C559.847 1878.44 560.969 1872.19 561.463 1866.38C563.325 1844.49 564.873 1822.55 556.044 1801.79C555.466 1801.7 554.895 1801.26 554.386 1800.98C553.983 1785.4 564.265 1755.32 568.346 1738.82C578.848 1696.35 590.902 1652.09 594.769 1608.45C603.442 1579.1 603.848 1497.53 600.159 1465.29C598.35 1449.48 593.279 1433.06 592.928 1417.34L592.916 1416.44C599.408 1419.55 619.669 1419.24 626.571 1416.81C626.719 1416.76 626.864 1416.7 627.01 1416.64C628.287 1417.09 629.643 1417.24 630.992 1417.3C641.072 1417.73 693.419 1412.38 699.454 1406.78Z"/>
	<path fill="#F6BF9D" d="M699.454 1406.78C700.361 1407.23 701.307 1407.6 702.32 1407.73C707.367 1408.35 719.149 1405.12 723.015 1401.87L723.25 1402.65C725.38 1409.49 728.88 1416 731.668 1422.62Q738.312 1438.56 743.56 1455.01C760.503 1509.34 767.09 1575.16 768.122 1631.89C770.128 1646.81 768.914 1662.93 768.769 1678.02L767.713 1761.84C767.581 1773.42 766.311 1786.44 767.825 1797.89C768.079 1799.82 768.565 1801.29 770.037 1802.6C762.891 1814.36 749.744 1824.53 740.538 1834.93C730.133 1846.69 721.4 1860.4 709.63 1870.85C704.803 1875.14 698.685 1879.18 692.378 1880.82C687.186 1882.17 682.865 1880.92 678.039 1878.97C676.892 1877.62 675.944 1876.36 675.076 1874.81C682.189 1872.55 730.15 1805.4 736.259 1794.58C728.035 1785.07 670.327 1557.96 660.589 1523.86C654.734 1503.36 648.46 1482.87 642.079 1462.52C639.261 1453.53 635.676 1444.72 633.367 1435.59C630.026 1430.76 628.216 1422.39 627.01 1416.64C628.287 1417.09 629.643 1417.24 630.992 1417.3C641.072 1417.73 693.419 1412.38 699.454 1406.78Z"/>
	<path fill="#ED9979" d="M699.454 1406.78C700.361 1407.23 701.307 1407.6 702.32 1407.73C707.367 1408.35 719.149 1405.12 723.015 1401.87L723.25 1402.65C725.38 1409.49 728.88 1416 731.668 1422.62Q738.312 1438.56 743.56 1455.01C760.503 1509.34 767.09 1575.16 768.122 1631.89C767.095 1639.6 767.629 1648.05 767.449 1655.85C765.06 1653.27 762.687 1608.74 761.778 1600.88C757.581 1564.54 749.983 1528.76 734.258 1495.53C719.265 1463.85 695.926 1433.68 657.778 1435.07C651.696 1435.29 639.162 1437.86 633.827 1435.79C633.671 1435.73 633.52 1435.66 633.367 1435.59C630.026 1430.76 628.216 1422.39 627.01 1416.64C628.287 1417.09 629.643 1417.24 630.992 1417.3C641.072 1417.73 693.419 1412.38 699.454 1406.78Z"/>
	<path fill="#5F82B0" d="M469.113 929.039C505.549 940.665 547.426 947.3 585.737 946.426C587.298 950.832 589.506 954.425 593.924 956.425C594.805 956.823 595.335 956.958 596.295 956.883C598.16 958.674 599.906 960.217 601.097 962.554L602.427 965.484C614.476 973.607 611.293 978.206 628.166 982.07C632.521 993.234 645.952 1036.08 650.97 1043.05L653.527 1043.62C656.834 1042.99 658.474 1041.04 660.727 1038.71C665.596 1064.88 674.474 1090.34 680.064 1116.43C696.362 1192.49 714.386 1302.86 704.724 1379.76C703.666 1388.18 702.509 1398.9 699.454 1406.78C693.419 1412.38 641.072 1417.73 630.992 1417.3C629.643 1417.24 628.287 1417.09 627.01 1416.64C626.864 1416.7 626.719 1416.76 626.571 1416.81C619.669 1419.24 599.408 1419.55 592.916 1416.44C592.093 1416.89 591.403 1417.24 590.479 1417.45C577.04 1420.45 508.175 1409.34 496.957 1402.51C492.41 1402.64 488.778 1401.12 485.316 1398.25C478.912 1380.29 474.961 1349.24 471.24 1329.41C448.128 1206.28 434.822 1079.02 450.104 954.039C456.517 957.091 462.417 962.416 468.067 966.733Q467.919 953.49 468.495 940.258L469.113 929.039Z"/>
	<path fill="#1C2567" d="M602.427 965.484C614.476 973.607 611.293 978.206 628.166 982.07C632.521 993.234 645.952 1036.08 650.97 1043.05C649.55 1045.72 646.736 1047.53 643.914 1048.49C640.445 1049.67 636.653 1049.51 633.404 1047.76C631.025 1046.47 629.461 1044.88 628.257 1042.48C623.509 1033.01 620.706 1021.24 617.362 1011.14C612.356 996.006 606.707 980.816 602.427 965.484Z"/>
	<path fill="#4B538F" d="M469.113 929.039C505.549 940.665 547.426 947.3 585.737 946.426C587.298 950.832 589.506 954.425 593.924 956.425C594.805 956.823 595.335 956.958 596.295 956.883C598.16 958.674 599.906 960.217 601.097 962.554C600.793 962.721 600.244 963.052 599.874 963.165C595.963 964.354 587.688 963.086 583.338 962.888C553.84 961.546 495.187 956.118 469.238 943.071L468.495 940.258L469.113 929.039Z"/>
	<path fill="#DF6755" d="M681.248 483.595C699.96 488.393 722.206 492.462 739.7 500.741C746.186 503.488 752.311 506.196 758.206 510.083C765.887 515.819 771.195 522.495 776.765 530.233C783.767 541.376 791.328 552.21 797.929 563.596Q803.219 572.842 808.227 582.244Q813.236 591.646 817.958 601.195Q822.68 610.744 827.111 620.431Q831.542 630.118 835.679 639.935Q839.816 649.752 843.654 659.689Q847.492 669.626 851.028 679.675Q854.564 689.723 857.795 699.874Q861.026 710.025 863.949 720.269C867.275 731.783 873.842 749.409 871.187 761.237C866.283 783.088 811.263 851.675 792.452 865.32C789.994 865.019 789.019 863.986 787.103 862.568C779.604 871.879 770.431 879.53 762.842 888.646C769.854 906.2 777.557 924.138 782.907 942.269C765.745 962.068 742.567 976.44 722.233 992.709C704.414 1003.57 688.962 1019.44 671.625 1031.43C668.222 1033.79 664.446 1036.95 660.727 1038.71C658.474 1041.04 656.834 1042.99 653.527 1043.62L650.97 1043.05C645.952 1036.08 632.521 993.234 628.166 982.07C611.293 978.206 614.476 973.607 602.427 965.484L601.097 962.554C599.906 960.217 598.16 958.674 596.295 956.883C595.335 956.958 594.805 956.823 593.924 956.425C589.506 954.425 587.298 950.832 585.737 946.426C588.328 944.323 591.832 942.721 594.746 941.049C592.032 929.21 587.162 917.468 583.432 905.889C576.912 885.648 571 865.159 563.351 845.307C564.647 841.025 573.582 836.842 577.362 834.499C573.433 814.969 572.867 788.43 571.331 768.142L562.731 655.019C576.889 629.255 591.648 603.83 605.574 577.936C608.926 572.283 612.443 566.683 615.209 560.714C622.199 557.346 628.96 553.688 635.424 549.383C659.541 533.325 675.574 512.156 681.248 483.595Z"/>
	<path fill="#B13946" d="M790.906 750.218C791.707 747.085 792.248 746.069 795.02 744.329C802.43 739.676 817.422 736.065 826.238 737.59C825.411 739.575 825.51 739.745 823.431 740.569C814.882 743.956 804.682 744.579 795.189 748.611C793.779 749.21 792.419 749.928 790.906 750.218Z"/>
	<path fill="#B13946" d="M782.944 740.175C789.781 732.038 805.287 723.875 816.009 722.615C817.375 722.454 818.141 722.636 819.385 723.167L819.712 724.768C814.454 731.573 794.718 732.14 785.476 742.738L782.944 740.175Z"/>
	<path fill="#FFFFFF" d="M731.349 663.725C739.442 674.464 779.757 731.102 782.944 740.175L785.476 742.738C787.112 745.127 788.827 748.251 790.906 750.218C786.559 762.336 754.964 813.922 746.735 826.046L746.223 826.05C743.091 820.568 741.068 813.158 738.717 807.2Q729.287 783.906 720.651 760.305C711.452 759.488 702.307 759.323 693.082 759.208C690.325 761.338 687.192 763.064 684.21 764.864C686.984 756.612 692.531 749.607 697.622 742.659C716.47 716.936 730.283 696.72 731.349 663.725Z"/>
	<path fill="#B13946" d="M596.628 717.121C608.473 715.911 620.315 714.872 631.837 711.709C656.422 704.958 679.067 688.926 691.742 666.516C699.506 652.789 703.013 633.506 699.977 617.978C698.571 610.789 695.756 603.742 693.806 596.662C700.931 608.304 705.889 621.318 713.063 633.072C717.782 640.804 729.499 655.954 731.349 663.725C730.283 696.72 716.47 716.936 697.622 742.659C692.531 749.607 686.984 756.612 684.21 764.864C670.704 774.054 657.128 783.69 642.883 791.693C646.893 779.381 654.968 770.27 656.444 756.776C657.329 748.678 655.531 740.802 650.278 734.451C637.825 719.394 614.533 718.859 596.628 717.121Z"/>
	<path fill="#0B9AD7" d="M693.082 759.208C702.307 759.323 711.452 759.488 720.651 760.305Q729.287 783.906 738.717 807.2C741.068 813.158 743.091 820.568 746.223 826.05L746.735 826.046C752.594 836.565 776.464 854.798 787.103 862.568C779.604 871.879 770.431 879.53 762.842 888.646C769.854 906.2 777.557 924.138 782.907 942.269C765.745 962.068 742.567 976.44 722.233 992.709C704.414 1003.57 688.962 1019.44 671.625 1031.43C668.222 1033.79 664.446 1036.95 660.727 1038.71C658.474 1041.04 656.834 1042.99 653.527 1043.62L650.97 1043.05C645.952 1036.08 632.521 993.234 628.166 982.07C611.293 978.206 614.476 973.607 602.427 965.484L601.097 962.554C599.906 960.217 598.16 958.674 596.295 956.883C595.335 956.958 594.805 956.823 593.924 956.425C589.506 954.425 587.298 950.832 585.737 946.426C588.328 944.323 591.832 942.721 594.746 941.049C592.032 929.21 587.162 917.468 583.432 905.889C576.912 885.648 571 865.159 563.351 845.307C564.647 841.025 573.582 836.842 577.362 834.499C598.571 819.427 622.126 807.328 642.883 791.693C657.128 783.69 670.704 774.054 684.21 764.864C687.192 763.064 690.325 761.338 693.082 759.208Z"/>
	<path fill="#FDFDFE" d="M696.469 762.4L708.169 763.329C678.999 783.618 648.481 802.191 618.505 821.279C608.054 827.934 592.775 835.556 583.97 843.693C579.096 845.504 573.932 845.275 568.803 844.99C580.619 835.409 596.035 827.479 608.989 819.303C638.364 800.762 667.986 782.297 696.469 762.4Z"/>
	<path fill="#1C2567" d="M583.97 843.693C592.17 857.351 596.331 876.719 601.216 891.863C606.456 908.11 612.258 924.237 617.308 940.532C611.796 941.086 599.568 943.542 594.746 941.049C592.032 929.21 587.162 917.468 583.432 905.889C576.912 885.648 571 865.159 563.351 845.307L568.803 844.99C573.932 845.275 579.096 845.504 583.97 843.693Z"/>
	<path fill="#54A4DF" d="M632.39 897.646C630.273 887.194 625.497 879.146 625.874 868.041C626.313 855.072 631.602 842.859 641.172 834.032C649.465 826.384 660.236 822.217 671.542 822.887C691.8 824.088 706.97 838.478 714.738 856.262C716.39 860.046 717.136 865.612 719.878 868.567C719.99 868.687 720.111 868.797 720.227 868.912C716.19 875.46 700.444 899.28 694.293 901.593C686.182 901.976 677.804 898.087 669.987 896.178C662.6 894.374 638.99 889.618 632.92 893.029L632.39 897.646Z"/>
	<path fill="#F6BF9D" d="M746.223 826.05L746.735 826.046C752.594 836.565 776.464 854.798 787.103 862.568C779.604 871.879 770.431 879.53 762.842 888.646C769.854 906.2 777.557 924.138 782.907 942.269C765.745 962.068 742.567 976.44 722.233 992.709C704.414 1003.57 688.962 1019.44 671.625 1031.43C668.222 1033.79 664.446 1036.95 660.727 1038.71C658.474 1041.04 656.834 1042.99 653.527 1043.62L650.97 1043.05C645.952 1036.08 632.521 993.234 628.166 982.07C611.293 978.206 614.476 973.607 602.427 965.484L601.097 962.554C599.906 960.217 598.16 958.674 596.295 956.883C595.335 956.958 594.805 956.823 593.924 956.425C589.506 954.425 587.298 950.832 585.737 946.426C588.328 944.323 591.832 942.721 594.746 941.049C599.568 943.542 611.796 941.086 617.308 940.532C625.921 939.258 634.885 936.26 642.544 932.118C647.775 929.289 654.113 924.877 655.724 918.756C658.664 907.583 640.281 911.188 632.39 897.646L632.92 893.029C638.99 889.618 662.6 894.374 669.987 896.178C677.804 898.087 686.182 901.976 694.293 901.593C700.444 899.28 716.19 875.46 720.227 868.912C728.455 855.523 741.218 840.901 746.223 826.05Z"/>
	<path fill="#ED9979" d="M596.295 956.883C597.878 955.932 598.746 955.42 600.618 955.527L601.783 954.766C598.542 953.924 598.617 953.419 596.213 951.719L597.388 949.537L596.143 950.38C600.858 950.754 634.685 952.112 636.237 953.068C631.03 956.495 605.505 952.763 604.616 956.983C611.041 963.126 638.233 960.998 647.645 960.902C644.7 963.53 632.354 970.125 631.805 971.024C636.481 971.569 647.582 968.754 650.523 971.098L649.301 969.986L651.387 970.514C649.493 971.867 644.033 975.118 643.476 977.233C643.118 978.596 643.358 980.453 643.463 981.865C638.382 982.16 633.255 982.052 628.166 982.07C611.293 978.206 614.476 973.607 602.427 965.484L601.097 962.554C599.906 960.217 598.16 958.674 596.295 956.883Z"/>
	<path fill="#FFFFFF" d="M643.463 981.865C655.734 979.108 666.657 974.412 677.178 967.515C690.472 958.801 701.704 947.075 713.104 936.098C729.604 920.209 745.82 903.978 762.842 888.646C769.854 906.2 777.557 924.138 782.907 942.269C765.745 962.068 742.567 976.44 722.233 992.709C704.414 1003.57 688.962 1019.44 671.625 1031.43C668.222 1033.79 664.446 1036.95 660.727 1038.71C658.474 1041.04 656.834 1042.99 653.527 1043.62L650.97 1043.05C645.952 1036.08 632.521 993.234 628.166 982.07C633.255 982.052 638.382 982.16 643.463 981.865Z"/>
</svg>
